<?xml version="1.0" encoding="utf-8"?>
<!-- Generator: Adobe Illustrator 15.0.0, SVG Export Plug-In . SVG Version: 6.00 Build 0)  -->
<!DOCTYPE svg PUBLIC "-//W3C//DTD SVG 1.1//EN" "http://www.w3.org/Graphics/SVG/1.1/DTD/svg11.dtd">
<svg version="1.1" id="Layer_1" xmlns="http://www.w3.org/2000/svg" xmlns:xlink="http://www.w3.org/1999/xlink" x="0px" y="0px"
	 width="35px" height="35px" viewBox="0 0 50 50" enable-background="new 0 0 50 50" xml:space="preserve">
<path fill="#FFFFFF" stroke="#000000" stroke-width="1.4168" stroke-linecap="round" d="M27.905,20.804
	c2.2,12.789,23.104,9.406,20.103-3.491C45.313,5.746,27.175,8.949,27.905,20.804"/>
<path fill="#FFFFFF" stroke="#000000" stroke-width="1.3746" stroke-linecap="round" d="M2.923,22.872
	c2.854,11.135,20.679,8.283,20.007-2.886C22.124,6.61,0.196,9.191,2.923,22.872"/>
<path fill="#FFFFFF" stroke="#000000" stroke-width="1.4616" stroke-linecap="round" d="M30.429,36.15
	c0.009,1.663,0.377,3.529,0.062,5.297c-0.426,0.804-1.259,0.89-1.975,1.213c-0.994-0.156-1.828-0.808-2.226-1.737
	c-0.257-2.019,0.094-3.973,0.158-5.992L30.429,36.15z"/>
<g>
	<ellipse cx="7.84" cy="21.056" rx="3.011" ry="3.26"/>
	<path fill="#FFFFFF" d="M9.209,20.962c0.393,0,0.709,0.373,0.709,0.83S9.602,22.62,9.209,22.62c-0.391,0-0.71-0.371-0.71-0.828
		S8.817,20.962,9.209,20.962z"/>
</g>
<g>
	<path d="M33.062,16.982c1.633,0,2.957,1.46,2.957,3.263c0,1.8-1.324,3.26-2.957,3.26c-1.636,0-2.962-1.46-2.962-3.26
		C30.101,18.443,31.427,16.982,33.062,16.982z"/>
	<ellipse fill="#FFFFFF" cx="34.408" cy="20.979" rx="0.698" ry="0.829"/>
</g>
<path fill="#FFFFFF" stroke="#000000" stroke-width="1.4616" stroke-linecap="round" d="M21.825,35.969
	c-1.314,3.184,0.732,9.548,4.296,4.853c-0.255-2.018,0.095-3.973,0.16-5.993L21.825,35.969z"/>
<g>
	<path fill="#F6D2A2" stroke="#231F20" stroke-width="1.4616" stroke-linecap="round" d="M22.274,29.84
		c-2.447,0.209-4.45,3.119-3.176,5.422c1.686,3.05,5.448-0.271,7.79,0.041c2.697,0.055,4.906,2.851,7.072,0.506
		c2.408-2.61-1.038-5.152-3.73-6.287L22.274,29.84z"/>
	<path d="M21.966,29.711c-0.181-4.239,7.906-4.771,8.86-1.22C31.776,32.033,22.364,32.854,21.966,29.711
		C21.648,27.203,21.966,29.711,21.966,29.711z"/>
</g>
</svg>
